<?xml version="1.0" encoding="utf-8"?><svg viewBox="0 0 68 68" xmlns="http://www.w3.org/2000/svg" xmlns:xlink="http://www.w3.org/1999/xlink"><style>:root>svg{display:none}:root>svg:target{display:block}</style><svg fill="none" viewBox="0 0 10 18" id="icon-arrow-left" xmlns="http://www.w3.org/2000/svg"><path d="M.307 9.642l8.095 8.092a.912.912 0 001.287 0 .907.907 0 000-1.284L2.236 9l7.452-7.45a.908.908 0 000-1.284.912.912 0 00-1.287 0L.307 8.358a.917.917 0 000 1.284z" fill="currentColor"/></svg><svg fill="none" viewBox="0 0 10 10" id="icon-caret" xmlns="http://www.w3.org/2000/svg"><path d="M4.03 6.255v.002L1.907 3.832a.125.125 0 01.095-.207h5.995a.125.125 0 01.094.207L5.094 7.259a.125.125 0 01-.188 0l-.877-1.003z" fill="#3FC2C3"/><path d="M4.03 6.255v.002L1.907 3.832a.125.125 0 01.095-.207h5.995a.125.125 0 01.094.207L5.094 7.259a.125.125 0 01-.188 0l-.877-1.003z" fill="#E0E7E9"/><path d="M4.03 6.255v.002L1.907 3.832h0a.125.125 0 01.095-.207h5.995a.125.125 0 01.094.207h0L5.094 7.259h0a.125.125 0 01-.188 0l-.877-1.003z" stroke="#E0E7E9"/></svg><svg fill="none" viewBox="0 0 8 10" id="icon-directions-caret" xmlns="http://www.w3.org/2000/svg"><path d="M7.03 5.649L2.145 9.785c-.576.488-1.478.091-1.478-.65V.864c0-.166.05-.328.142-.467a.883.883 0 01.38-.319.918.918 0 01.956.137L7.03 4.35a.839.839 0 010 1.299z" fill="#B2C2C7"/></svg><svg fill="none" viewBox="0 0 16 16" id="icon-email" xmlns="http://www.w3.org/2000/svg"><path d="M0 4a2 2 0 012-2h12a2 2 0 012 2v8a2 2 0 01-2 2H2a2 2 0 01-2-2V4zm2-1a1 1 0 00-1 1v.217l7 4.2 7-4.2V4a1 1 0 00-1-1H2zm13 2.383l-4.708 2.825L15 11.105V5.383zm-.034 6.876l-5.64-3.471L8 9.583l-1.326-.795-5.64 3.47A1 1 0 002 13h12a1 1 0 00.966-.741zM1 11.105l4.708-2.897L1 5.383v5.722z" fill="currentColor"/></svg><svg fill="none" viewBox="0 0 10 10" id="icon-error" xmlns="http://www.w3.org/2000/svg"><g clip-path="url(#eclip0_160_845)"><path d="M5.657.272a.928.928 0 00-1.313 0L.273 4.344a.926.926 0 000 1.311l4.072 4.072a.926.926 0 001.312 0l4.072-4.072a.926.926 0 000-1.311L5.657.272zM5 2.5c.335 0 .597.289.563.622l-.219 2.192a.345.345 0 01-.687 0l-.22-2.192A.566.566 0 015 2.5zm.002 3.75a.625.625 0 110 1.25.625.625 0 010-1.25z" fill="#000"/><path d="M5.657.272a.928.928 0 00-1.313 0L.273 4.344a.926.926 0 000 1.311l4.072 4.072a.926.926 0 001.312 0l4.072-4.072a.926.926 0 000-1.311L5.657.272zM5 2.5c.335 0 .597.289.563.622l-.219 2.192a.345.345 0 01-.687 0l-.22-2.192A.566.566 0 015 2.5zm.002 3.75a.625.625 0 110 1.25.625.625 0 010-1.25z" fill="#FF4040"/></g><defs><clipPath id="eclip0_160_845"><path fill="#fff" d="M0 0h10v10H0z"/></clipPath></defs></svg><svg fill="none" viewBox="0 0 16 16" id="icon-eye" xmlns="http://www.w3.org/2000/svg"><g fill="currentColor"><path d="M13.359 11.238C15.06 9.72 16 8 16 8s-3-5.5-8-5.5c-.96.003-1.91.203-2.79.588l.77.771A5.944 5.944 0 018 3.5c2.12 0 3.879 1.168 5.168 2.457.62.624 1.176 1.308 1.66 2.043-.058.087-.122.183-.195.288-.335.48-.83 1.12-1.465 1.755-.165.165-.337.328-.517.486l.708.709z"/><path d="M11.297 9.174A3.5 3.5 0 006.823 4.7l.823.823a2.5 2.5 0 012.829 2.83l.822.821zm-2.943 1.3l.822.821a3.5 3.5 0 01-4.474-4.474l.823.823a2.5 2.5 0 002.829 2.83z"/><path d="M3.35 5.469c-.18.16-.353.322-.518.487a13.134 13.134 0 00-1.66 2.043l.195.288c.335.48.83 1.12 1.465 1.754 1.289 1.29 3.049 2.457 5.168 2.457.716 0 1.39-.132 2.02-.36l.77.773c-.88.384-1.83.584-2.79.588-5 0-8-5.5-8-5.5S.939 6.278 2.641 4.76l.708.709.001-.001zm10.296 8.883l-12-12 .708-.707 12 12-.708.707z"/></g></svg><svg fill="none" viewBox="0 0 35 35" id="icon-facebook" xmlns="http://www.w3.org/2000/svg"><path d="M21.677 8.15h2.403V4.1c-.415-.056-1.84-.18-3.5-.18-3.464 0-5.837 2.11-5.837 5.987v3.568H10.92v4.529h3.823V29.4h4.686V18.005h3.668l.583-4.529h-4.252v-3.12c.001-1.31.365-2.205 2.25-2.205z" fill="#000"/><path d="M21.677 8.15h2.403V4.1c-.415-.056-1.84-.18-3.5-.18-3.464 0-5.837 2.11-5.837 5.987v3.568H10.92v4.529h3.823V29.4h4.686V18.005h3.668l.583-4.529h-4.252v-3.12c.001-1.31.365-2.205 2.25-2.205z" fill="currentColor"/></svg><svg fill="none" viewBox="0 0 16 16" id="icon-help" xmlns="http://www.w3.org/2000/svg"><g clip-path="url(#hclip0_40_4604)" fill="currentColor"><path d="M8 15A7 7 0 118 1a7 7 0 010 14zm0 1A8 8 0 108-.001 8 8 0 008 16z"/><path d="M5.255 5.786a.237.237 0 00.241.247h.825c.138 0 .248-.113.266-.25.09-.656.54-1.134 1.342-1.134.686 0 1.314.343 1.314 1.168 0 .635-.374.927-.965 1.371-.673.489-1.206 1.06-1.168 1.987l.003.217a.25.25 0 00.25.246h.811a.25.25 0 00.25-.25v-.105c0-.718.273-.927 1.01-1.486.61-.463 1.244-.977 1.244-2.056 0-1.511-1.276-2.241-2.673-2.241-1.267 0-2.655.59-2.75 2.286zm1.557 5.763c0 .533.425.927 1.01.927.61 0 1.028-.394 1.028-.927 0-.552-.42-.94-1.029-.94-.584 0-1.009.388-1.009.94z"/></g><defs><clipPath id="hclip0_40_4604"><path fill="currentColor" d="M0 0h16v16H0z"/></clipPath></defs></svg><svg fill="none" viewBox="0 0 35 35" id="icon-instagram" xmlns="http://www.w3.org/2000/svg"><g clip-path="url(#iclip0_40_4589)" fill-rule="evenodd" clip-rule="evenodd"><path d="M30.113 11.593c-.059-1.343-.276-2.267-.587-3.067a6.167 6.167 0 00-1.462-2.242 6.221 6.221 0 00-2.237-1.456c-.805-.311-1.723-.529-3.066-.588-1.353-.064-1.783-.079-5.215-.079s-3.861.015-5.21.074c-1.343.06-2.266.277-3.066.588-.85.32-1.61.815-2.242 1.461a6.223 6.223 0 00-1.457 2.237c-.31.805-.528 1.724-.587 3.067-.064 1.353-.08 1.783-.08 5.214 0 3.432.016 3.862.075 5.21.06 1.343.276 2.267.588 3.067.32.849.82 1.61 1.461 2.241a6.22 6.22 0 002.237 1.457c.805.311 1.723.528 3.067.588 1.348.06 1.777.074 5.21.074 3.431 0 3.86-.015 5.209-.074 1.343-.06 2.266-.277 3.066-.588a6.466 6.466 0 003.699-3.698c.311-.805.528-1.724.588-3.067.059-1.348.074-1.778.074-5.21 0-3.431-.005-3.861-.065-5.21zm-2.276 10.32c-.054 1.235-.262 1.901-.434 2.346a4.193 4.193 0 01-2.4 2.4c-.445.173-1.116.38-2.346.434-1.333.06-1.733.074-5.106.074-3.373 0-3.777-.014-5.106-.074-1.234-.054-1.901-.261-2.345-.434a3.89 3.89 0 01-1.452-.943 3.93 3.93 0 01-.943-1.452c-.173-.444-.38-1.116-.435-2.346-.06-1.333-.074-1.733-.074-5.106 0-3.372.015-3.777.074-5.106.054-1.234.262-1.9.435-2.345a3.842 3.842 0 01.948-1.452c.41-.42.903-.74 1.452-.943.444-.173 1.116-.38 2.345-.435 1.333-.059 1.733-.074 5.106-.074 3.378 0 3.778.015 5.106.074 1.235.055 1.901.262 2.346.435a3.887 3.887 0 011.451.943c.42.41.741.904.944 1.452.172.444.38 1.116.434 2.345.06 1.334.074 1.734.074 5.106 0 3.373-.015 3.768-.074 5.101zM17.546 10.31a6.495 6.495 0 00-6.494 6.493 6.495 6.495 0 006.494 6.494 6.495 6.495 0 006.493-6.494 6.495 6.495 0 00-6.493-6.493zm0 10.705a4.213 4.213 0 11.001-8.425 4.213 4.213 0 01-.001 8.425zm6.75-9.446a1.516 1.516 0 100-3.032 1.516 1.516 0 000 3.032z" fill="#183646"/><path d="M30.113 11.593c-.059-1.343-.276-2.267-.587-3.067a6.167 6.167 0 00-1.462-2.242 6.221 6.221 0 00-2.237-1.456c-.805-.311-1.723-.529-3.066-.588-1.353-.064-1.783-.079-5.215-.079s-3.861.015-5.21.074c-1.343.06-2.266.277-3.066.588-.85.32-1.61.815-2.242 1.461a6.223 6.223 0 00-1.457 2.237c-.31.805-.528 1.724-.587 3.067-.064 1.353-.08 1.783-.08 5.214 0 3.432.016 3.862.075 5.21.06 1.343.276 2.267.588 3.067.32.849.82 1.61 1.461 2.241a6.22 6.22 0 002.237 1.457c.805.311 1.723.528 3.067.588 1.348.06 1.777.074 5.21.074 3.431 0 3.86-.015 5.209-.074 1.343-.06 2.266-.277 3.066-.588a6.466 6.466 0 003.699-3.698c.311-.805.528-1.724.588-3.067.059-1.348.074-1.778.074-5.21 0-3.431-.005-3.861-.065-5.21zm-2.276 10.32c-.054 1.235-.262 1.901-.434 2.346a4.193 4.193 0 01-2.4 2.4c-.445.173-1.116.38-2.346.434-1.333.06-1.733.074-5.106.074-3.373 0-3.777-.014-5.106-.074-1.234-.054-1.901-.261-2.345-.434a3.89 3.89 0 01-1.452-.943 3.93 3.93 0 01-.943-1.452c-.173-.444-.38-1.116-.435-2.346-.06-1.333-.074-1.733-.074-5.106 0-3.372.015-3.777.074-5.106.054-1.234.262-1.9.435-2.345a3.842 3.842 0 01.948-1.452c.41-.42.903-.74 1.452-.943.444-.173 1.116-.38 2.345-.435 1.333-.059 1.733-.074 5.106-.074 3.378 0 3.778.015 5.106.074 1.235.055 1.901.262 2.346.435a3.887 3.887 0 011.451.943c.42.41.741.904.944 1.452.172.444.38 1.116.434 2.345.06 1.334.074 1.734.074 5.106 0 3.373-.015 3.768-.074 5.101zM17.546 10.31a6.495 6.495 0 00-6.494 6.493 6.495 6.495 0 006.494 6.494 6.495 6.495 0 006.493-6.494 6.495 6.495 0 00-6.493-6.493zm0 10.705a4.213 4.213 0 11.001-8.425 4.213 4.213 0 01-.001 8.425zm6.75-9.446a1.516 1.516 0 100-3.032 1.516 1.516 0 000 3.032z" fill="currentColor"/><path d="M30.113 11.593c-.059-1.343-.276-2.267-.587-3.067a6.167 6.167 0 00-1.462-2.242 6.221 6.221 0 00-2.237-1.456c-.805-.311-1.723-.529-3.066-.588-1.353-.064-1.783-.079-5.215-.079s-3.861.015-5.21.074c-1.343.06-2.266.277-3.066.588-.85.32-1.61.815-2.242 1.461a6.223 6.223 0 00-1.457 2.237c-.31.805-.528 1.724-.587 3.067-.064 1.353-.08 1.783-.08 5.214 0 3.432.016 3.862.075 5.21.06 1.343.276 2.267.588 3.067.32.849.82 1.61 1.461 2.241a6.22 6.22 0 002.237 1.457c.805.311 1.723.528 3.067.588 1.348.06 1.777.074 5.21.074 3.431 0 3.86-.015 5.209-.074 1.343-.06 2.266-.277 3.066-.588a6.466 6.466 0 003.699-3.698c.311-.805.528-1.724.588-3.067.059-1.348.074-1.778.074-5.21 0-3.431-.005-3.861-.065-5.21zm-2.276 10.32c-.054 1.235-.262 1.901-.434 2.346a4.193 4.193 0 01-2.4 2.4c-.445.173-1.116.38-2.346.434-1.333.06-1.733.074-5.106.074-3.373 0-3.777-.014-5.106-.074-1.234-.054-1.901-.261-2.345-.434a3.89 3.89 0 01-1.452-.943 3.93 3.93 0 01-.943-1.452c-.173-.444-.38-1.116-.435-2.346-.06-1.333-.074-1.733-.074-5.106 0-3.372.015-3.777.074-5.106.054-1.234.262-1.9.435-2.345a3.842 3.842 0 01.948-1.452c.41-.42.903-.74 1.452-.943.444-.173 1.116-.38 2.345-.435 1.333-.059 1.733-.074 5.106-.074 3.378 0 3.778.015 5.106.074 1.235.055 1.901.262 2.346.435a3.887 3.887 0 011.451.943c.42.41.741.904.944 1.452.172.444.38 1.116.434 2.345.06 1.334.074 1.734.074 5.106 0 3.373-.015 3.768-.074 5.101zM17.546 10.31a6.495 6.495 0 00-6.494 6.493 6.495 6.495 0 006.494 6.494 6.495 6.495 0 006.493-6.494 6.495 6.495 0 00-6.493-6.493zm0 10.705a4.213 4.213 0 11.001-8.425 4.213 4.213 0 01-.001 8.425zm6.75-9.446a1.516 1.516 0 100-3.032 1.516 1.516 0 000 3.032z" fill="url(#ipaint0_linear_40_4589)"/><path d="M30.113 11.593c-.059-1.343-.276-2.267-.587-3.067a6.167 6.167 0 00-1.462-2.242 6.221 6.221 0 00-2.237-1.456c-.805-.311-1.723-.529-3.066-.588-1.353-.064-1.783-.079-5.215-.079s-3.861.015-5.21.074c-1.343.06-2.266.277-3.066.588-.85.32-1.61.815-2.242 1.461a6.223 6.223 0 00-1.457 2.237c-.31.805-.528 1.724-.587 3.067-.064 1.353-.08 1.783-.08 5.214 0 3.432.016 3.862.075 5.21.06 1.343.276 2.267.588 3.067.32.849.82 1.61 1.461 2.241a6.22 6.22 0 002.237 1.457c.805.311 1.723.528 3.067.588 1.348.06 1.777.074 5.21.074 3.431 0 3.86-.015 5.209-.074 1.343-.06 2.266-.277 3.066-.588a6.466 6.466 0 003.699-3.698c.311-.805.528-1.724.588-3.067.059-1.348.074-1.778.074-5.21 0-3.431-.005-3.861-.065-5.21zm-2.276 10.32c-.054 1.235-.262 1.901-.434 2.346a4.193 4.193 0 01-2.4 2.4c-.445.173-1.116.38-2.346.434-1.333.06-1.733.074-5.106.074-3.373 0-3.777-.014-5.106-.074-1.234-.054-1.901-.261-2.345-.434a3.89 3.89 0 01-1.452-.943 3.93 3.93 0 01-.943-1.452c-.173-.444-.38-1.116-.435-2.346-.06-1.333-.074-1.733-.074-5.106 0-3.372.015-3.777.074-5.106.054-1.234.262-1.9.435-2.345a3.842 3.842 0 01.948-1.452c.41-.42.903-.74 1.452-.943.444-.173 1.116-.38 2.345-.435 1.333-.059 1.733-.074 5.106-.074 3.378 0 3.778.015 5.106.074 1.235.055 1.901.262 2.346.435a3.887 3.887 0 011.451.943c.42.41.741.904.944 1.452.172.444.38 1.116.434 2.345.06 1.334.074 1.734.074 5.106 0 3.373-.015 3.768-.074 5.101zM17.546 10.31a6.495 6.495 0 00-6.494 6.493 6.495 6.495 0 006.494 6.494 6.495 6.495 0 006.493-6.494 6.495 6.495 0 00-6.493-6.493zm0 10.705a4.213 4.213 0 11.001-8.425 4.213 4.213 0 01-.001 8.425zm6.75-9.446a1.516 1.516 0 100-3.032 1.516 1.516 0 000 3.032z" fill="currentColor"/></g><defs><linearGradient id="ipaint0_linear_40_4589" x1="4.905" y1="4.161" x2="32.774" y2="7.453" gradientUnits="userSpaceOnUse"><stop stop-color="#2D2D2D"/><stop offset=".364" stop-color="#202020"/><stop offset="1" stop-color="#181818"/></linearGradient><clipPath id="iclip0_40_4589"><path fill="#fff" transform="translate(4.86 4.161)" d="M0 0h25.278v25.278H0z"/></clipPath></defs></svg><svg fill="none" viewBox="0 0 60 44" id="icon-mark" xmlns="http://www.w3.org/2000/svg"><path d="M58.37 5.269a2.664 2.664 0 00-3.765-3.766L19.25 36.86 5.176 22.781a2.662 2.662 0 10-3.766 3.766l15.958 15.958a2.66 2.66 0 003.767 0L58.37 5.27z" fill="#fff"/></svg><svg fill="none" viewBox="0 0 16 16" id="icon-phone" xmlns="http://www.w3.org/2000/svg"><g clip-path="url(#kclip0_40_4609)" fill="currentColor"><path d="M11 1a1 1 0 011 1v12a1 1 0 01-1 1H5a1 1 0 01-1-1V2a1 1 0 011-1h6zM5 0a2 2 0 00-2 2v12a2 2 0 002 2h6a2 2 0 002-2V2a2 2 0 00-2-2H5z"/><path d="M8 14a1 1 0 100-2 1 1 0 000 2z"/></g><defs><clipPath id="kclip0_40_4609"><path fill="currentColor" d="M0 0h16v16H0z"/></clipPath></defs></svg><svg fill="none" viewBox="0 0 25 38" id="icon-slider-right" xmlns="http://www.w3.org/2000/svg"><path d="M22.938 21.353L5.805 36.341c-2.018 1.768-5.181.33-5.181-2.354V4.012A3.125 3.125 0 015.809 1.66l17.125 14.988a3.126 3.126 0 010 4.706h.003z" fill="currentColor"/></svg><svg fill="none" viewBox="0 0 28 26" id="icon-star" xmlns="http://www.w3.org/2000/svg"><path d="M13.049.927c.3-.921 1.603-.921 1.902 0l2.417 7.438a1 1 0 00.95.69h7.821c.969 0 1.372 1.24.588 1.81L20.4 15.46a1 1 0 00-.363 1.118l2.416 7.438c.3.922-.755 1.688-1.538 1.118l-6.327-4.597a1 1 0 00-1.176 0l-6.327 4.597c-.783.57-1.838-.197-1.539-1.118l2.417-7.438a1 1 0 00-.363-1.118l-6.327-4.596c-.784-.57-.38-1.81.588-1.81h7.82a1 1 0 00.951-.69L13.05.927z" fill="#3FC2C3"/></svg><svg fill="none" viewBox="0 0 24 16" id="icon-triangle" xmlns="http://www.w3.org/2000/svg"><path d="M13.24 15.316a1.014 1.014 0 01-1.633.107L.918 2.533a1 1 0 01.77-1.638h21.15c.917 0 1.363 1.14.7 1.772-1.554 1.476-3.723 3.616-5.191 5.38-1.817 2.184-3.99 5.51-5.106 7.268z" fill="#3FC2C3"/><path d="M13.24 15.316a1.014 1.014 0 01-1.633.107L.918 2.533a1 1 0 01.77-1.638h21.15c.917 0 1.363 1.14.7 1.772-1.554 1.476-3.723 3.616-5.191 5.38-1.817 2.184-3.99 5.51-5.106 7.268z" fill="url(#npaint0_linear_62_410)"/><defs><linearGradient id="npaint0_linear_62_410" x1="13.687" y1="16.5" x2="13.687" y2=".895" gradientUnits="userSpaceOnUse"><stop offset="1" stop-color="#BCEAEA"/></linearGradient></defs></svg><svg fill="none" viewBox="0 0 35 35" id="icon-twitter" xmlns="http://www.w3.org/2000/svg"><path d="M33.04 7.776c-1.166.512-2.409.85-3.704 1.015a6.393 6.393 0 002.828-3.553 12.85 12.85 0 01-4.077 1.556 6.427 6.427 0 00-11.121 4.396c0 .51.043 1 .15 1.467C11.77 12.396 7.04 9.834 3.863 5.932a6.473 6.473 0 00-.88 3.25c0 2.226 1.146 4.2 2.855 5.342a6.349 6.349 0 01-2.904-.791v.07c0 3.124 2.228 5.72 5.15 6.317a6.416 6.416 0 01-1.685.212c-.412 0-.827-.024-1.217-.11.833 2.546 3.196 4.418 6.007 4.479a12.918 12.918 0 01-7.971 2.742c-.527 0-1.033-.024-1.539-.088a18.099 18.099 0 009.863 2.885c11.83 0 18.299-9.8 18.299-18.295 0-.284-.01-.559-.024-.83a12.826 12.826 0 003.222-3.339z" fill="currentColor"/></svg><svg fill="none" viewBox="0 0 68 68" id="icon-user" xmlns="http://www.w3.org/2000/svg"><path opacity=".35" d="M5.667 68S0 68 0 62.333c0-5.666 5.667-22.666 34-22.666s34 17 34 22.666C68 68 62.333 68 62.333 68H5.667zM34 34a17 17 0 100-34 17 17 0 000 34z" fill="url(#ppaint0_linear_40_4050)"/><defs><linearGradient id="ppaint0_linear_40_4050" x1="34" y1="0" x2="22.06" y2="78.392" gradientUnits="userSpaceOnUse"><stop stop-color="#3FC2C3"/><stop offset="1" stop-color="#3FC2C3" stop-opacity="0"/></linearGradient></defs></svg></svg>