<?xml version="1.0" encoding="utf-8"?><svg viewBox="0 0 61 60" xmlns="http://www.w3.org/2000/svg" xmlns:xlink="http://www.w3.org/1999/xlink"><style>:root>svg{display:none}:root>svg:target{display:block}</style><svg fill="none" viewBox="0 0 10 18" id="icon-arrow-left" xmlns="http://www.w3.org/2000/svg"><path d="M.307 9.642l8.095 8.092a.912.912 0 001.287 0 .907.907 0 000-1.284L2.236 9l7.452-7.45a.908.908 0 000-1.284.912.912 0 00-1.287 0L.307 8.358a.917.917 0 000 1.284z" fill="currentColor"/></svg><svg fill="none" viewBox="0 0 24 24" id="icon-calendar" xmlns="http://www.w3.org/2000/svg"><path d="M16.5 9.75a.75.75 0 01.75-.75h1.5a.75.75 0 01.75.75v1.5a.75.75 0 01-.75.75h-1.5a.75.75 0 01-.75-.75v-1.5z" fill="#fff"/><path d="M16.5 9.75a.75.75 0 01.75-.75h1.5a.75.75 0 01.75.75v1.5a.75.75 0 01-.75.75h-1.5a.75.75 0 01-.75-.75v-1.5z" fill="currentColor"/><path d="M5.25 0A.75.75 0 016 .75v.75h12V.75a.75.75 0 111.5 0v.75H21a3 3 0 013 3V21a3 3 0 01-3 3H3a3 3 0 01-3-3V4.5a3 3 0 013-3h1.5V.75A.75.75 0 015.25 0zM1.5 6v15A1.5 1.5 0 003 22.5h18a1.5 1.5 0 001.5-1.5V6h-21z" fill="#fff"/><path d="M5.25 0A.75.75 0 016 .75v.75h12V.75a.75.75 0 111.5 0v.75H21a3 3 0 013 3V21a3 3 0 01-3 3H3a3 3 0 01-3-3V4.5a3 3 0 013-3h1.5V.75A.75.75 0 015.25 0zM1.5 6v15A1.5 1.5 0 003 22.5h18a1.5 1.5 0 001.5-1.5V6h-21z" fill="currentColor"/></svg><svg fill="none" viewBox="0 0 18 18" id="icon-calendar-plus" xmlns="http://www.w3.org/2000/svg"><path d="M9 7.875a.563.563 0 01.563.563v1.687h1.687a.562.562 0 110 1.125H9.562v1.688a.562.562 0 11-1.124 0V11.25H6.75a.563.563 0 010-1.125h1.688V8.437A.563.563 0 019 7.875z" fill="#3FC2C3"/><path d="M3.938 0A.563.563 0 014.5.563v.562h9V.562a.563.563 0 011.125 0v.563h1.125A2.25 2.25 0 0118 3.375V15.75A2.25 2.25 0 0115.75 18H2.25A2.25 2.25 0 010 15.75V3.375a2.25 2.25 0 012.25-2.25h1.125V.562A.562.562 0 013.938 0zM1.124 4.5v11.25a1.125 1.125 0 001.125 1.125h13.5a1.125 1.125 0 001.125-1.125V4.5H1.125z" fill="#3FC2C3"/></svg><svg fill="none" viewBox="0 0 16 16" id="icon-camera" xmlns="http://www.w3.org/2000/svg"><g clip-path="url(#adclip0_186_14)" fill="#fff"><path d="M15 12a1 1 0 01-1 1H2a1 1 0 01-1-1V6a1 1 0 011-1h1.172a3 3 0 002.12-.879l.83-.828A1 1 0 016.827 3h2.344a1 1 0 01.707.293l.828.828A3 3 0 0012.828 5H14a1 1 0 011 1v6zM2 4a2 2 0 00-2 2v6a2 2 0 002 2h12a2 2 0 002-2V6a2 2 0 00-2-2h-1.172a2 2 0 01-1.414-.586l-.828-.828A2 2 0 009.172 2H6.828a2 2 0 00-1.414.586l-.828.828A2 2 0 013.172 4H2z"/><path d="M8 11a2.5 2.5 0 110-5 2.5 2.5 0 010 5zm0 1a3.5 3.5 0 100-7 3.5 3.5 0 000 7zM3 6.5a.5.5 0 11-1 0 .5.5 0 011 0z"/></g><defs><clipPath id="adclip0_186_14"><path fill="#fff" d="M0 0h16v16H0z"/></clipPath></defs></svg><svg fill="none" viewBox="0 0 10 10" id="icon-caret" xmlns="http://www.w3.org/2000/svg"><path d="M4.03 6.255v.002L1.907 3.832a.125.125 0 01.095-.207h5.995a.125.125 0 01.094.207L5.094 7.259a.125.125 0 01-.188 0l-.877-1.003z" fill="#3FC2C3"/><path d="M4.03 6.255v.002L1.907 3.832a.125.125 0 01.095-.207h5.995a.125.125 0 01.094.207L5.094 7.259a.125.125 0 01-.188 0l-.877-1.003z" fill="#E0E7E9"/><path d="M4.03 6.255v.002L1.907 3.832h0a.125.125 0 01.095-.207h5.995a.125.125 0 01.094.207h0L5.094 7.259h0a.125.125 0 01-.188 0l-.877-1.003z" stroke="#E0E7E9"/></svg><svg fill="none" viewBox="0 0 24 24" id="icon-chat" xmlns="http://www.w3.org/2000/svg"><g clip-path="url(#afclip0_186_54)"><path d="M21 1.5A1.5 1.5 0 0122.5 3v12a1.5 1.5 0 01-1.5 1.5H6.621a3 3 0 00-2.121.879l-3 3V3A1.5 1.5 0 013 1.5h18zM3 0a3 3 0 00-3 3v19.19a.75.75 0 001.281.529l4.28-4.28A1.5 1.5 0 016.62 18H21a3 3 0 003-3V3a3 3 0 00-3-3H3z" fill="#000"/><path d="M21 1.5A1.5 1.5 0 0122.5 3v12a1.5 1.5 0 01-1.5 1.5H6.621a3 3 0 00-2.121.879l-3 3V3A1.5 1.5 0 013 1.5h18zM3 0a3 3 0 00-3 3v19.19a.75.75 0 001.281.529l4.28-4.28A1.5 1.5 0 016.62 18H21a3 3 0 003-3V3a3 3 0 00-3-3H3z" fill="currentColor"/><path d="M4.5 5.25a.75.75 0 01.75-.75h13.5a.75.75 0 110 1.5H5.25a.75.75 0 01-.75-.75zM4.5 9a.75.75 0 01.75-.75h13.5a.75.75 0 110 1.5H5.25A.75.75 0 014.5 9zm0 3.75a.75.75 0 01.75-.75h7.5a.75.75 0 110 1.5h-7.5a.75.75 0 01-.75-.75z" fill="#000"/><path d="M4.5 5.25a.75.75 0 01.75-.75h13.5a.75.75 0 110 1.5H5.25a.75.75 0 01-.75-.75zM4.5 9a.75.75 0 01.75-.75h13.5a.75.75 0 110 1.5H5.25A.75.75 0 014.5 9zm0 3.75a.75.75 0 01.75-.75h7.5a.75.75 0 110 1.5h-7.5a.75.75 0 01-.75-.75z" fill="currentColor"/></g><defs><clipPath id="afclip0_186_54"><path fill="#fff" d="M0 0h24v24H0z"/></clipPath></defs></svg><svg fill="none" viewBox="0 0 61 60" id="icon-chat-dots" xmlns="http://www.w3.org/2000/svg"><path d="M19.75 30a3.75 3.75 0 11-7.5 0 3.75 3.75 0 017.5 0zm15 0a3.75 3.75 0 11-7.5 0 3.75 3.75 0 017.5 0zM46 33.75a3.75 3.75 0 100-7.5 3.75 3.75 0 000 7.5z" fill="#fff"/><path d="M9.119 59.261l.075-.015c6.862-1.361 11.055-3.157 13.005-4.144A33.977 33.977 0 0031 56.25c16.568 0 30-11.752 30-26.25S47.568 3.75 31 3.75C14.432 3.75 1 15.502 1 30c0 6.6 2.786 12.638 7.387 17.25a39.138 39.138 0 01-1.965 8.693l-.01.04c-.28.806-.585 1.603-.916 2.39-.296.697.278 1.477 1.024 1.357a81.405 81.405 0 002.599-.469zm3-11.655a3.748 3.748 0 00-1.076-3.004C7.068 40.612 4.75 35.505 4.75 30 4.75 18.03 16.015 7.5 31 7.5S57.25 18.03 57.25 30c0 11.974-11.265 22.5-26.25 22.5a30.224 30.224 0 01-7.83-1.02 3.75 3.75 0 00-2.666.278c-1.452.734-4.65 2.137-9.878 3.348a41.13 41.13 0 001.493-7.5z" fill="#fff"/></svg><svg fill="none" viewBox="0 0 16 16" id="icon-chat-fill" xmlns="http://www.w3.org/2000/svg"><g clip-path="url(#ahclip0_186_2220)"><path d="M0 2a2 2 0 012-2h12a2 2 0 012 2v8a2 2 0 01-2 2H4.414a1 1 0 00-.707.293L.854 15.146A.5.5 0 010 14.793V2zm3.5 1a.5.5 0 100 1h9a.5.5 0 000-1h-9zm0 2.5a.5.5 0 100 1h9a.5.5 0 000-1h-9zm0 2.5a.5.5 0 100 1h5a.5.5 0 100-1h-5z" fill="currentColor"/></g><defs><clipPath id="ahclip0_186_2220"><path fill="#fff" d="M0 0h16v16H0z"/></clipPath></defs></svg><svg fill="none" viewBox="0 0 18 18" id="icon-clock" xmlns="http://www.w3.org/2000/svg"><g clip-path="url(#aiclip0_154_2196)"><path d="M9 3.938a.563.563 0 10-1.125 0v6.187a.563.563 0 00.284.488l3.937 2.25a.562.562 0 00.558-.976L9 9.799V3.938z" fill="#000"/><path d="M9 3.938a.563.563 0 10-1.125 0v6.187a.563.563 0 00.284.488l3.937 2.25a.562.562 0 00.558-.976L9 9.799V3.938z" fill="#3FC2C3"/><path d="M9 18A9 9 0 109 0a9 9 0 000 18zm7.875-9a7.875 7.875 0 11-15.75 0 7.875 7.875 0 0115.75 0z" fill="#000"/><path d="M9 18A9 9 0 109 0a9 9 0 000 18zm7.875-9a7.875 7.875 0 11-15.75 0 7.875 7.875 0 0115.75 0z" fill="#3FC2C3"/></g><defs><clipPath id="aiclip0_154_2196"><path fill="#fff" d="M0 0h18v18H0z"/></clipPath></defs></svg><svg fill="none" viewBox="0 0 16 16" id="icon-delete" xmlns="http://www.w3.org/2000/svg"><path d="M5.5 5.5A.5.5 0 016 6v6a.5.5 0 01-1 0V6a.5.5 0 01.5-.5zm2.5 0a.5.5 0 01.5.5v6a.5.5 0 01-1 0V6a.5.5 0 01.5-.5zm3 .5a.5.5 0 00-1 0v6a.5.5 0 001 0V6z" fill="#000"/><path d="M5.5 5.5A.5.5 0 016 6v6a.5.5 0 01-1 0V6a.5.5 0 01.5-.5zm2.5 0a.5.5 0 01.5.5v6a.5.5 0 01-1 0V6a.5.5 0 01.5-.5zm3 .5a.5.5 0 00-1 0v6a.5.5 0 001 0V6z" fill="#FF7070"/><path fill-rule="evenodd" clip-rule="evenodd" d="M14.5 3a1 1 0 01-1 1H13v9a2 2 0 01-2 2H5a2 2 0 01-2-2V4h-.5a1 1 0 01-1-1V2a1 1 0 011-1H6a1 1 0 011-1h2a1 1 0 011 1h3.5a1 1 0 011 1v1zM4.118 4L4 4.059V13a1 1 0 001 1h6a1 1 0 001-1V4.059L11.882 4H4.118zM2.5 3V2h11v1h-11z" fill="#000"/><path fill-rule="evenodd" clip-rule="evenodd" d="M14.5 3a1 1 0 01-1 1H13v9a2 2 0 01-2 2H5a2 2 0 01-2-2V4h-.5a1 1 0 01-1-1V2a1 1 0 011-1H6a1 1 0 011-1h2a1 1 0 011 1h3.5a1 1 0 011 1v1zM4.118 4L4 4.059V13a1 1 0 001 1h6a1 1 0 001-1V4.059L11.882 4H4.118zM2.5 3V2h11v1h-11z" fill="#FF7070"/></svg><svg fill="none" viewBox="0 0 8 10" id="icon-directions-caret" xmlns="http://www.w3.org/2000/svg"><path d="M7.03 5.649L2.145 9.785c-.576.488-1.478.091-1.478-.65V.864c0-.166.05-.328.142-.467a.883.883 0 01.38-.319.918.918 0 01.956.137L7.03 4.35a.839.839 0 010 1.299z" fill="#B2C2C7"/></svg><svg fill="none" viewBox="0 0 46 56" id="icon-doctor" xmlns="http://www.w3.org/2000/svg"><path d="M25.934 55.723c-.807-.176-1.614-.298-2.408-.515-5.028-1.396-8.91-6.114-9.59-11.672-.101-.827-.152-1.654-.152-2.481-.012-3.457-.012-6.9 0-10.358 0-.474-.113-.61-.567-.705C8.34 28.976 4.735 26.088 2.43 21.37 1.257 18.97.778 16.381.778 13.697V4.804c0-1.667.706-2.413 2.243-2.427H6.45c.038 0 .063-.013.139-.027.025-.135.05-.298.075-.447.152-.95.908-1.64 1.79-1.668.882-.027 1.676.624 1.865 1.56.038.176.063.352.063.528 0 1.396.026 2.78 0 4.176-.012 1.084-.693 1.925-1.588 2.06-.92.136-1.777-.406-2.067-1.342-.075-.23-.1-.488-.163-.76H4.57c-.012.164-.037.313-.037.475 0 2.346-.013 4.705 0 7.05.037 5.87 3.579 10.615 8.897 11.957 5.735 1.45 11.872-2.562 13.284-8.704.227-.99.366-2.02.39-3.05.064-2.454.026-4.92.026-7.375 0-.108-.013-.216-.025-.352h-2.13c-.025.15-.05.285-.063.42-.151 1.017-.958 1.722-1.916 1.695-.945-.027-1.764-.814-1.802-1.83a95.906 95.906 0 010-4.664c.025-1.03.87-1.844 1.827-1.857.946-.014 1.752.732 1.89 1.749.013.122.026.244.051.42h3.743c.277 0 .58.013.845.095.756.217 1.26.867 1.323 1.708.038.46.025.935.025 1.41-.012 3.131.05 6.263-.063 9.381-.151 4.216-1.752 7.782-4.55 10.724-2.306 2.413-5.066 3.877-8.255 4.378-.15.027-.29.068-.466.095a4.699 4.699 0 00-.025.42c0 3.634-.025 7.267 0 10.9.025 4.46 2.457 8.12 6.364 9.639 5.344 2.074 11.47-1.817 12.301-7.836.1-.732.151-1.478.164-2.21.025-2.331 0-4.663.013-6.995 0-.352-.076-.542-.416-.664-2.975-1.166-4.865-4.162-4.676-7.389.201-3.457 2.319-6.181 5.457-6.981 4.336-1.112 8.658 2.711 8.47 7.51-.127 3.2-1.866 5.789-4.651 6.86-.315.122-.429.27-.429.65.026 2.44.013 4.88.013 7.321-.013 3.742-1.147 7.009-3.504 9.775-2.218 2.589-4.965 4.066-8.204 4.5-.164.027-.328.068-.492.095-.68-.054-1.348-.054-2.016-.054zm9.15-29.459c-.038 1.898 1.348 3.457 3.125 3.512 1.701.067 3.201-1.478 3.252-3.349.05-1.912-1.374-3.511-3.164-3.538-1.714-.027-3.176 1.505-3.214 3.375z" fill="#fff"/></svg><svg fill="none" viewBox="0 0 18 10" id="icon-dropdown" xmlns="http://www.w3.org/2000/svg"><path d="M9.642 9.693l8.092-8.095a.912.912 0 000-1.287.907.907 0 00-1.284 0L9 7.764 1.55.312a.908.908 0 00-1.284 0 .912.912 0 000 1.287l8.092 8.094c.35.35.935.35 1.284 0z" fill="#000"/><path d="M9.642 9.693l8.092-8.095a.912.912 0 000-1.287.907.907 0 00-1.284 0L9 7.764 1.55.312a.908.908 0 00-1.284 0 .912.912 0 000 1.287l8.092 8.094c.35.35.935.35 1.284 0z" fill="#645DF6"/><path d="M9.642 9.693l8.092-8.095a.912.912 0 000-1.287.907.907 0 00-1.284 0L9 7.764 1.55.312a.908.908 0 00-1.284 0 .912.912 0 000 1.287l8.092 8.094c.35.35.935.35 1.284 0z" fill="#3FC2C3"/></svg><svg fill="none" viewBox="0 0 16 16" id="icon-edit" xmlns="http://www.w3.org/2000/svg"><path d="M15.502 1.94a.5.5 0 010 .706L14.459 3.69l-2-2L13.502.646a.5.5 0 01.707 0l1.293 1.293v.001zm-1.75 2.456l-2-2L4.939 9.21a.5.5 0 00-.121.196l-.805 2.414a.25.25 0 00.316.316l2.414-.805a.5.5 0 00.196-.12l6.813-6.814z" fill="#3FC2C3"/><path fill-rule="evenodd" clip-rule="evenodd" d="M1 13.5A1.5 1.5 0 002.5 15h11a1.5 1.5 0 001.5-1.5v-6a.5.5 0 00-1 0v6a.5.5 0 01-.5.5h-11a.5.5 0 01-.5-.5v-11a.5.5 0 01.5-.5H9a.5.5 0 100-1H2.5A1.5 1.5 0 001 2.5v11z" fill="#3FC2C3"/></svg><svg fill="none" viewBox="0 0 16 16" id="icon-email" xmlns="http://www.w3.org/2000/svg"><path d="M0 4a2 2 0 012-2h12a2 2 0 012 2v8a2 2 0 01-2 2H2a2 2 0 01-2-2V4zm2-1a1 1 0 00-1 1v.217l7 4.2 7-4.2V4a1 1 0 00-1-1H2zm13 2.383l-4.708 2.825L15 11.105V5.383zm-.034 6.876l-5.64-3.471L8 9.583l-1.326-.795-5.64 3.47A1 1 0 002 13h12a1 1 0 00.966-.741zM1 11.105l4.708-2.897L1 5.383v5.722z" fill="currentColor"/></svg><svg fill="none" viewBox="0 0 16 16" id="icon-error" xmlns="http://www.w3.org/2000/svg"><g clip-path="url(#apclip0_186_1825)" fill="#FF7070"><path d="M7.938 2.015A.13.13 0 018.002 2a.13.13 0 01.063.016.146.146 0 01.054.057l6.857 11.668c.036.06.035.123.002.182a.164.164 0 01-.054.06.117.117 0 01-.066.018H1.146a.115.115 0 01-.066-.018.164.164 0 01-.054-.06.176.176 0 01.002-.183L7.884 2.072a.147.147 0 01.054-.057zm1.044-.45a1.13 1.13 0 00-1.96 0L.165 13.233c-.457.777.09 1.766.98 1.766h13.713c.889 0 1.438-.99.98-1.767L8.982 1.566z"/><path d="M7.004 12a1 1 0 111.999 0 1 1 0 01-2 0zm.098-6.006a.905.905 0 111.8 0l-.35 3.507a.552.552 0 01-1.1 0l-.35-3.507z"/></g><defs><clipPath id="apclip0_186_1825"><path fill="#fff" d="M0 0h16v16H0z"/></clipPath></defs></svg><svg fill="none" viewBox="0 0 24 24" id="icon-exit" xmlns="http://www.w3.org/2000/svg"><g clip-path="url(#aqclip0_147_1599)" fill-rule="evenodd" clip-rule="evenodd" fill="currentColor"><path d="M9 18.75a.75.75 0 00.75.75h12a.75.75 0 00.75-.75V5.25a.75.75 0 00-.75-.75h-12a.75.75 0 00-.75.75v3a.75.75 0 01-1.5 0v-3A2.25 2.25 0 019.75 3h12A2.25 2.25 0 0124 5.25v13.5A2.25 2.25 0 0121.75 21h-12a2.25 2.25 0 01-2.25-2.25v-3a.75.75 0 111.5 0v3z"/><path d="M.218 12.531a.75.75 0 010-1.062l4.5-4.5A.75.75 0 115.78 8.031L2.56 11.25h13.19a.75.75 0 110 1.5H2.56l3.22 3.219a.75.75 0 11-1.062 1.062l-4.5-4.5z"/></g><defs><clipPath id="aqclip0_147_1599"><path fill="#fff" d="M0 0h24v24H0z"/></clipPath></defs></svg><svg fill="none" viewBox="0 0 16 16" id="icon-eye" xmlns="http://www.w3.org/2000/svg"><g fill="currentColor"><path d="M13.359 11.238C15.06 9.72 16 8 16 8s-3-5.5-8-5.5c-.96.003-1.91.203-2.79.588l.77.771A5.944 5.944 0 018 3.5c2.12 0 3.879 1.168 5.168 2.457.62.624 1.176 1.308 1.66 2.043-.058.087-.122.183-.195.288-.335.48-.83 1.12-1.465 1.755-.165.165-.337.328-.517.486l.708.709z"/><path d="M11.297 9.174A3.5 3.5 0 006.823 4.7l.823.823a2.5 2.5 0 012.829 2.83l.822.821zm-2.943 1.3l.822.821a3.5 3.5 0 01-4.474-4.474l.823.823a2.5 2.5 0 002.829 2.83z"/><path d="M3.35 5.469c-.18.16-.353.322-.518.487a13.134 13.134 0 00-1.66 2.043l.195.288c.335.48.83 1.12 1.465 1.754 1.289 1.29 3.049 2.457 5.168 2.457.716 0 1.39-.132 2.02-.36l.77.773c-.88.384-1.83.584-2.79.588-5 0-8-5.5-8-5.5S.939 6.278 2.641 4.76l.708.709.001-.001zm10.296 8.883l-12-12 .708-.707 12 12-.708.707z"/></g></svg><svg fill="none" viewBox="0 0 35 35" id="icon-facebook" xmlns="http://www.w3.org/2000/svg"><path d="M21.677 8.15h2.403V4.1c-.415-.056-1.84-.18-3.5-.18-3.464 0-5.837 2.11-5.837 5.987v3.568H10.92v4.529h3.823V29.4h4.686V18.005h3.668l.583-4.529h-4.252v-3.12c.001-1.31.365-2.205 2.25-2.205z" fill="#000"/><path d="M21.677 8.15h2.403V4.1c-.415-.056-1.84-.18-3.5-.18-3.464 0-5.837 2.11-5.837 5.987v3.568H10.92v4.529h3.823V29.4h4.686V18.005h3.668l.583-4.529h-4.252v-3.12c.001-1.31.365-2.205 2.25-2.205z" fill="currentColor"/></svg><svg fill="none" viewBox="0 0 24 24" id="icon-finance" xmlns="http://www.w3.org/2000/svg"><g clip-path="url(#atclip0_182_21)" fill="#819CA5"><path d="M18.204.49A2.25 2.25 0 0121 2.67V4.5h.75A2.25 2.25 0 0124 6.75v13.5a2.25 2.25 0 01-2.25 2.25H2.25A2.25 2.25 0 010 20.25V6.75a2.25 2.25 0 012.148-2.248L18.204.489zM8.343 4.5H19.5V2.67a.75.75 0 00-.931-.726L8.342 4.5zM2.25 6a.75.75 0 00-.75.75v13.5a.75.75 0 00.75.75h19.5a.75.75 0 00.75-.75V6.75a.75.75 0 00-.75-.75H2.25z"/><path d="M9 14.565h.797C10.05 16.742 11.487 18 13.755 18c.466 0 .875-.051 1.244-.139v-.975c-.363.09-.784.128-1.244.128-1.575 0-2.591-.899-2.831-2.448h3.013v-.696h-3.064v-.702c0-.083 0-.164.006-.247h3.058v-.695h-2.973c.29-1.424 1.289-2.239 2.792-2.239.46 0 .881.038 1.244.133v-.974c-.407-.101-.825-.15-1.244-.146-2.196 0-3.615 1.177-3.933 3.225H9v.696h.758v.949H9v.696z"/></g><defs><clipPath id="atclip0_182_21"><path fill="#fff" d="M0 0h24v24H0z"/></clipPath></defs></svg><svg fill="none" viewBox="0 0 16 16" id="icon-help" xmlns="http://www.w3.org/2000/svg"><g clip-path="url(#auclip0_40_4604)" fill="currentColor"><path d="M8 15A7 7 0 118 1a7 7 0 010 14zm0 1A8 8 0 108-.001 8 8 0 008 16z"/><path d="M5.255 5.786a.237.237 0 00.241.247h.825c.138 0 .248-.113.266-.25.09-.656.54-1.134 1.342-1.134.686 0 1.314.343 1.314 1.168 0 .635-.374.927-.965 1.371-.673.489-1.206 1.06-1.168 1.987l.003.217a.25.25 0 00.25.246h.811a.25.25 0 00.25-.25v-.105c0-.718.273-.927 1.01-1.486.61-.463 1.244-.977 1.244-2.056 0-1.511-1.276-2.241-2.673-2.241-1.267 0-2.655.59-2.75 2.286zm1.557 5.763c0 .533.425.927 1.01.927.61 0 1.028-.394 1.028-.927 0-.552-.42-.94-1.029-.94-.584 0-1.009.388-1.009.94z"/></g><defs><clipPath id="auclip0_40_4604"><path fill="currentColor" d="M0 0h16v16H0z"/></clipPath></defs></svg><svg fill="none" viewBox="0 0 35 35" id="icon-instagram" xmlns="http://www.w3.org/2000/svg"><g clip-path="url(#avclip0_40_4589)" fill-rule="evenodd" clip-rule="evenodd"><path d="M30.113 11.593c-.059-1.343-.276-2.267-.587-3.067a6.167 6.167 0 00-1.462-2.242 6.221 6.221 0 00-2.237-1.456c-.805-.311-1.723-.529-3.066-.588-1.353-.064-1.783-.079-5.215-.079s-3.861.015-5.21.074c-1.343.06-2.266.277-3.066.588-.85.32-1.61.815-2.242 1.461a6.223 6.223 0 00-1.457 2.237c-.31.805-.528 1.724-.587 3.067-.064 1.353-.08 1.783-.08 5.214 0 3.432.016 3.862.075 5.21.06 1.343.276 2.267.588 3.067.32.849.82 1.61 1.461 2.241a6.22 6.22 0 002.237 1.457c.805.311 1.723.528 3.067.588 1.348.06 1.777.074 5.21.074 3.431 0 3.86-.015 5.209-.074 1.343-.06 2.266-.277 3.066-.588a6.466 6.466 0 003.699-3.698c.311-.805.528-1.724.588-3.067.059-1.348.074-1.778.074-5.21 0-3.431-.005-3.861-.065-5.21zm-2.276 10.32c-.054 1.235-.262 1.901-.434 2.346a4.193 4.193 0 01-2.4 2.4c-.445.173-1.116.38-2.346.434-1.333.06-1.733.074-5.106.074-3.373 0-3.777-.014-5.106-.074-1.234-.054-1.901-.261-2.345-.434a3.89 3.89 0 01-1.452-.943 3.93 3.93 0 01-.943-1.452c-.173-.444-.38-1.116-.435-2.346-.06-1.333-.074-1.733-.074-5.106 0-3.372.015-3.777.074-5.106.054-1.234.262-1.9.435-2.345a3.842 3.842 0 01.948-1.452c.41-.42.903-.74 1.452-.943.444-.173 1.116-.38 2.345-.435 1.333-.059 1.733-.074 5.106-.074 3.378 0 3.778.015 5.106.074 1.235.055 1.901.262 2.346.435a3.887 3.887 0 011.451.943c.42.41.741.904.944 1.452.172.444.38 1.116.434 2.345.06 1.334.074 1.734.074 5.106 0 3.373-.015 3.768-.074 5.101zM17.546 10.31a6.495 6.495 0 00-6.494 6.493 6.495 6.495 0 006.494 6.494 6.495 6.495 0 006.493-6.494 6.495 6.495 0 00-6.493-6.493zm0 10.705a4.213 4.213 0 11.001-8.425 4.213 4.213 0 01-.001 8.425zm6.75-9.446a1.516 1.516 0 100-3.032 1.516 1.516 0 000 3.032z" fill="#183646"/><path d="M30.113 11.593c-.059-1.343-.276-2.267-.587-3.067a6.167 6.167 0 00-1.462-2.242 6.221 6.221 0 00-2.237-1.456c-.805-.311-1.723-.529-3.066-.588-1.353-.064-1.783-.079-5.215-.079s-3.861.015-5.21.074c-1.343.06-2.266.277-3.066.588-.85.32-1.61.815-2.242 1.461a6.223 6.223 0 00-1.457 2.237c-.31.805-.528 1.724-.587 3.067-.064 1.353-.08 1.783-.08 5.214 0 3.432.016 3.862.075 5.21.06 1.343.276 2.267.588 3.067.32.849.82 1.61 1.461 2.241a6.22 6.22 0 002.237 1.457c.805.311 1.723.528 3.067.588 1.348.06 1.777.074 5.21.074 3.431 0 3.86-.015 5.209-.074 1.343-.06 2.266-.277 3.066-.588a6.466 6.466 0 003.699-3.698c.311-.805.528-1.724.588-3.067.059-1.348.074-1.778.074-5.21 0-3.431-.005-3.861-.065-5.21zm-2.276 10.32c-.054 1.235-.262 1.901-.434 2.346a4.193 4.193 0 01-2.4 2.4c-.445.173-1.116.38-2.346.434-1.333.06-1.733.074-5.106.074-3.373 0-3.777-.014-5.106-.074-1.234-.054-1.901-.261-2.345-.434a3.89 3.89 0 01-1.452-.943 3.93 3.93 0 01-.943-1.452c-.173-.444-.38-1.116-.435-2.346-.06-1.333-.074-1.733-.074-5.106 0-3.372.015-3.777.074-5.106.054-1.234.262-1.9.435-2.345a3.842 3.842 0 01.948-1.452c.41-.42.903-.74 1.452-.943.444-.173 1.116-.38 2.345-.435 1.333-.059 1.733-.074 5.106-.074 3.378 0 3.778.015 5.106.074 1.235.055 1.901.262 2.346.435a3.887 3.887 0 011.451.943c.42.41.741.904.944 1.452.172.444.38 1.116.434 2.345.06 1.334.074 1.734.074 5.106 0 3.373-.015 3.768-.074 5.101zM17.546 10.31a6.495 6.495 0 00-6.494 6.493 6.495 6.495 0 006.494 6.494 6.495 6.495 0 006.493-6.494 6.495 6.495 0 00-6.493-6.493zm0 10.705a4.213 4.213 0 11.001-8.425 4.213 4.213 0 01-.001 8.425zm6.75-9.446a1.516 1.516 0 100-3.032 1.516 1.516 0 000 3.032z" fill="currentColor"/><path d="M30.113 11.593c-.059-1.343-.276-2.267-.587-3.067a6.167 6.167 0 00-1.462-2.242 6.221 6.221 0 00-2.237-1.456c-.805-.311-1.723-.529-3.066-.588-1.353-.064-1.783-.079-5.215-.079s-3.861.015-5.21.074c-1.343.06-2.266.277-3.066.588-.85.32-1.61.815-2.242 1.461a6.223 6.223 0 00-1.457 2.237c-.31.805-.528 1.724-.587 3.067-.064 1.353-.08 1.783-.08 5.214 0 3.432.016 3.862.075 5.21.06 1.343.276 2.267.588 3.067.32.849.82 1.61 1.461 2.241a6.22 6.22 0 002.237 1.457c.805.311 1.723.528 3.067.588 1.348.06 1.777.074 5.21.074 3.431 0 3.86-.015 5.209-.074 1.343-.06 2.266-.277 3.066-.588a6.466 6.466 0 003.699-3.698c.311-.805.528-1.724.588-3.067.059-1.348.074-1.778.074-5.21 0-3.431-.005-3.861-.065-5.21zm-2.276 10.32c-.054 1.235-.262 1.901-.434 2.346a4.193 4.193 0 01-2.4 2.4c-.445.173-1.116.38-2.346.434-1.333.06-1.733.074-5.106.074-3.373 0-3.777-.014-5.106-.074-1.234-.054-1.901-.261-2.345-.434a3.89 3.89 0 01-1.452-.943 3.93 3.93 0 01-.943-1.452c-.173-.444-.38-1.116-.435-2.346-.06-1.333-.074-1.733-.074-5.106 0-3.372.015-3.777.074-5.106.054-1.234.262-1.9.435-2.345a3.842 3.842 0 01.948-1.452c.41-.42.903-.74 1.452-.943.444-.173 1.116-.38 2.345-.435 1.333-.059 1.733-.074 5.106-.074 3.378 0 3.778.015 5.106.074 1.235.055 1.901.262 2.346.435a3.887 3.887 0 011.451.943c.42.41.741.904.944 1.452.172.444.38 1.116.434 2.345.06 1.334.074 1.734.074 5.106 0 3.373-.015 3.768-.074 5.101zM17.546 10.31a6.495 6.495 0 00-6.494 6.493 6.495 6.495 0 006.494 6.494 6.495 6.495 0 006.493-6.494 6.495 6.495 0 00-6.493-6.493zm0 10.705a4.213 4.213 0 11.001-8.425 4.213 4.213 0 01-.001 8.425zm6.75-9.446a1.516 1.516 0 100-3.032 1.516 1.516 0 000 3.032z" fill="url(#avpaint0_linear_40_4589)"/><path d="M30.113 11.593c-.059-1.343-.276-2.267-.587-3.067a6.167 6.167 0 00-1.462-2.242 6.221 6.221 0 00-2.237-1.456c-.805-.311-1.723-.529-3.066-.588-1.353-.064-1.783-.079-5.215-.079s-3.861.015-5.21.074c-1.343.06-2.266.277-3.066.588-.85.32-1.61.815-2.242 1.461a6.223 6.223 0 00-1.457 2.237c-.31.805-.528 1.724-.587 3.067-.064 1.353-.08 1.783-.08 5.214 0 3.432.016 3.862.075 5.21.06 1.343.276 2.267.588 3.067.32.849.82 1.61 1.461 2.241a6.22 6.22 0 002.237 1.457c.805.311 1.723.528 3.067.588 1.348.06 1.777.074 5.21.074 3.431 0 3.86-.015 5.209-.074 1.343-.06 2.266-.277 3.066-.588a6.466 6.466 0 003.699-3.698c.311-.805.528-1.724.588-3.067.059-1.348.074-1.778.074-5.21 0-3.431-.005-3.861-.065-5.21zm-2.276 10.32c-.054 1.235-.262 1.901-.434 2.346a4.193 4.193 0 01-2.4 2.4c-.445.173-1.116.38-2.346.434-1.333.06-1.733.074-5.106.074-3.373 0-3.777-.014-5.106-.074-1.234-.054-1.901-.261-2.345-.434a3.89 3.89 0 01-1.452-.943 3.93 3.93 0 01-.943-1.452c-.173-.444-.38-1.116-.435-2.346-.06-1.333-.074-1.733-.074-5.106 0-3.372.015-3.777.074-5.106.054-1.234.262-1.9.435-2.345a3.842 3.842 0 01.948-1.452c.41-.42.903-.74 1.452-.943.444-.173 1.116-.38 2.345-.435 1.333-.059 1.733-.074 5.106-.074 3.378 0 3.778.015 5.106.074 1.235.055 1.901.262 2.346.435a3.887 3.887 0 011.451.943c.42.41.741.904.944 1.452.172.444.38 1.116.434 2.345.06 1.334.074 1.734.074 5.106 0 3.373-.015 3.768-.074 5.101zM17.546 10.31a6.495 6.495 0 00-6.494 6.493 6.495 6.495 0 006.494 6.494 6.495 6.495 0 006.493-6.494 6.495 6.495 0 00-6.493-6.493zm0 10.705a4.213 4.213 0 11.001-8.425 4.213 4.213 0 01-.001 8.425zm6.75-9.446a1.516 1.516 0 100-3.032 1.516 1.516 0 000 3.032z" fill="currentColor"/></g><defs><linearGradient id="avpaint0_linear_40_4589" x1="4.905" y1="4.161" x2="32.774" y2="7.453" gradientUnits="userSpaceOnUse"><stop stop-color="#2D2D2D"/><stop offset=".364" stop-color="#202020"/><stop offset="1" stop-color="#181818"/></linearGradient><clipPath id="avclip0_40_4589"><path fill="#fff" transform="translate(4.86 4.161)" d="M0 0h25.278v25.278H0z"/></clipPath></defs></svg><svg fill="none" viewBox="0 0 60 44" id="icon-mark" xmlns="http://www.w3.org/2000/svg"><path d="M58.37 5.269a2.664 2.664 0 00-3.765-3.766L19.25 36.86 5.176 22.781a2.662 2.662 0 10-3.766 3.766l15.958 15.958a2.66 2.66 0 003.767 0L58.37 5.27z" fill="#fff"/></svg><svg fill="none" viewBox="0 0 23 26" id="icon-notification-bell" xmlns="http://www.w3.org/2000/svg"><path d="M11.704 25.955a3.168 3.168 0 003.168-3.168H8.537a3.167 3.167 0 003.167 3.168zM13.28 2.353a1.583 1.583 0 10-3.152 0 7.923 7.923 0 00-6.343 7.763c0 1.74-.792 9.503-3.168 11.087h22.175c-2.376-1.584-3.168-9.348-3.168-11.087a7.922 7.922 0 00-6.344-7.763z" fill="currentColor"/></svg><svg fill="none" viewBox="0 0 16 16" id="icon-pdf" xmlns="http://www.w3.org/2000/svg"><path d="M5.523 12.424c.14-.082.293-.162.46-.238-.141.209-.291.41-.45.606-.28.337-.499.516-.636.572a.27.27 0 01-.035.012.281.281 0 01-.026-.044c-.056-.11-.054-.216.04-.36.106-.165.32-.354.647-.548zm2.455-1.647c-.119.025-.237.05-.356.078.176-.346.343-.696.5-1.05.158.293.328.579.51.858-.217.032-.436.07-.654.114zm2.525.939a3.876 3.876 0 01-.435-.41c.228.005.434.022.612.054.317.057.466.147.518.209.017.017.026.04.026.064a.436.436 0 01-.06.2.307.307 0 01-.094.124.106.106 0 01-.069.015c-.09-.003-.258-.066-.498-.256zM8.278 6.97c-.04.244-.108.524-.2.829a4.868 4.868 0 01-.089-.346c-.076-.353-.087-.63-.046-.822.038-.177.11-.248.196-.283a.517.517 0 01.145-.04c.013.03.028.092.032.198.005.122-.007.277-.038.465V6.97z" fill="#000"/><path d="M5.523 12.424c.14-.082.293-.162.46-.238-.141.209-.291.41-.45.606-.28.337-.499.516-.636.572a.27.27 0 01-.035.012.281.281 0 01-.026-.044c-.056-.11-.054-.216.04-.36.106-.165.32-.354.647-.548zm2.455-1.647c-.119.025-.237.05-.356.078.176-.346.343-.696.5-1.05.158.293.328.579.51.858-.217.032-.436.07-.654.114zm2.525.939a3.876 3.876 0 01-.435-.41c.228.005.434.022.612.054.317.057.466.147.518.209.017.017.026.04.026.064a.436.436 0 01-.06.2.307.307 0 01-.094.124.106.106 0 01-.069.015c-.09-.003-.258-.066-.498-.256zM8.278 6.97c-.04.244-.108.524-.2.829a4.868 4.868 0 01-.089-.346c-.076-.353-.087-.63-.046-.822.038-.177.11-.248.196-.283a.517.517 0 01.145-.04c.013.03.028.092.032.198.005.122-.007.277-.038.465V6.97z" fill="#3FC2C3"/><path fill-rule="evenodd" clip-rule="evenodd" d="M4 0h5.293A1 1 0 0110 .293L13.707 4a1 1 0 01.293.707V14a2 2 0 01-2 2H4a2 2 0 01-2-2V2a2 2 0 012-2zm5.5 1.5v2a1 1 0 001 1h2l-3-3zM4.165 13.668c.09.18.23.343.438.419.207.075.412.04.58-.03.318-.13.635-.436.926-.786.333-.401.683-.927 1.021-1.51.653-.193 1.32-.33 1.997-.406.3.383.61.713.91.95.28.22.603.403.934.417.18.009.359-.04.51-.138.155-.101.27-.247.354-.416.09-.181.145-.37.138-.563a.844.844 0 00-.2-.518c-.226-.27-.596-.4-.96-.465a5.758 5.758 0 00-1.335-.05 10.952 10.952 0 01-.98-1.686c.25-.66.437-1.284.52-1.794.036-.218.055-.426.048-.614a1.238 1.238 0 00-.127-.538.7.7 0 00-.477-.365c-.202-.043-.41 0-.601.077-.377.15-.576.47-.651.823-.073.34-.04.736.046 1.136.088.406.238.848.43 1.295a19.695 19.695 0 01-1.062 2.227 7.662 7.662 0 00-1.482.645c-.37.22-.699.48-.897.787-.21.326-.275.714-.08 1.103z" fill="#000"/><path fill-rule="evenodd" clip-rule="evenodd" d="M4 0h5.293A1 1 0 0110 .293L13.707 4a1 1 0 01.293.707V14a2 2 0 01-2 2H4a2 2 0 01-2-2V2a2 2 0 012-2zm5.5 1.5v2a1 1 0 001 1h2l-3-3zM4.165 13.668c.09.18.23.343.438.419.207.075.412.04.58-.03.318-.13.635-.436.926-.786.333-.401.683-.927 1.021-1.51.653-.193 1.32-.33 1.997-.406.3.383.61.713.91.95.28.22.603.403.934.417.18.009.359-.04.51-.138.155-.101.27-.247.354-.416.09-.181.145-.37.138-.563a.844.844 0 00-.2-.518c-.226-.27-.596-.4-.96-.465a5.758 5.758 0 00-1.335-.05 10.952 10.952 0 01-.98-1.686c.25-.66.437-1.284.52-1.794.036-.218.055-.426.048-.614a1.238 1.238 0 00-.127-.538.7.7 0 00-.477-.365c-.202-.043-.41 0-.601.077-.377.15-.576.47-.651.823-.073.34-.04.736.046 1.136.088.406.238.848.43 1.295a19.695 19.695 0 01-1.062 2.227 7.662 7.662 0 00-1.482.645c-.37.22-.699.48-.897.787-.21.326-.275.714-.08 1.103z" fill="#3FC2C3"/></svg><svg fill="none" viewBox="0 0 16 16" id="icon-phone" xmlns="http://www.w3.org/2000/svg"><g clip-path="url(#azclip0_40_4609)" fill="currentColor"><path d="M11 1a1 1 0 011 1v12a1 1 0 01-1 1H5a1 1 0 01-1-1V2a1 1 0 011-1h6zM5 0a2 2 0 00-2 2v12a2 2 0 002 2h6a2 2 0 002-2V2a2 2 0 00-2-2H5z"/><path d="M8 14a1 1 0 100-2 1 1 0 000 2z"/></g><defs><clipPath id="azclip0_40_4609"><path fill="currentColor" d="M0 0h16v16H0z"/></clipPath></defs></svg><svg fill="none" viewBox="0 0 24 18" id="icon-profiles" xmlns="http://www.w3.org/2000/svg"><path d="M22.5 18s1.5 0 1.5-1.5-1.5-6-7.5-6S9 15 9 16.5s1.5 1.5 1.5 1.5h12zm-11.967-1.5a.368.368 0 01-.033-.006c.002-.396.25-1.545 1.14-2.58.828-.97 2.283-1.914 4.86-1.914 2.576 0 4.03.945 4.86 1.914.89 1.035 1.137 2.185 1.14 2.58l-.012.003a.379.379 0 01-.021.003H10.533zm5.967-9a3 3 0 100-6 3 3 0 000 6zm4.5-3a4.5 4.5 0 11-9.002 0A4.5 4.5 0 0121 4.5zm-10.596 6.42a8.826 8.826 0 00-1.845-.37c-.352-.034-.705-.05-1.059-.05-6 0-7.5 4.5-7.5 6 0 1 .5 1.5 1.5 1.5h6.324a3.357 3.357 0 01-.324-1.5c0-1.515.566-3.063 1.635-4.356a7.937 7.937 0 011.269-1.224zM7.38 12A8.24 8.24 0 006 16.5H1.5c0-.39.246-1.545 1.14-2.586.817-.954 2.238-1.884 4.74-1.912V12zM2.25 5.25a4.5 4.5 0 119 0 4.5 4.5 0 01-9 0zm4.5-3a3 3 0 100 6 3 3 0 000-6z" fill="#000"/><path d="M22.5 18s1.5 0 1.5-1.5-1.5-6-7.5-6S9 15 9 16.5s1.5 1.5 1.5 1.5h12zm-11.967-1.5a.368.368 0 01-.033-.006c.002-.396.25-1.545 1.14-2.58.828-.97 2.283-1.914 4.86-1.914 2.576 0 4.03.945 4.86 1.914.89 1.035 1.137 2.185 1.14 2.58l-.012.003a.379.379 0 01-.021.003H10.533zm5.967-9a3 3 0 100-6 3 3 0 000 6zm4.5-3a4.5 4.5 0 11-9.002 0A4.5 4.5 0 0121 4.5zm-10.596 6.42a8.826 8.826 0 00-1.845-.37c-.352-.034-.705-.05-1.059-.05-6 0-7.5 4.5-7.5 6 0 1 .5 1.5 1.5 1.5h6.324a3.357 3.357 0 01-.324-1.5c0-1.515.566-3.063 1.635-4.356a7.937 7.937 0 011.269-1.224zM7.38 12A8.24 8.24 0 006 16.5H1.5c0-.39.246-1.545 1.14-2.586.817-.954 2.238-1.884 4.74-1.912V12zM2.25 5.25a4.5 4.5 0 119 0 4.5 4.5 0 01-9 0zm4.5-3a3 3 0 100 6 3 3 0 000-6z" fill="#3FC2C3"/><path d="M22.5 18s1.5 0 1.5-1.5-1.5-6-7.5-6S9 15 9 16.5s1.5 1.5 1.5 1.5h12zm-11.967-1.5a.368.368 0 01-.033-.006c.002-.396.25-1.545 1.14-2.58.828-.97 2.283-1.914 4.86-1.914 2.576 0 4.03.945 4.86 1.914.89 1.035 1.137 2.185 1.14 2.58l-.012.003a.379.379 0 01-.021.003H10.533zm5.967-9a3 3 0 100-6 3 3 0 000 6zm4.5-3a4.5 4.5 0 11-9.002 0A4.5 4.5 0 0121 4.5zm-10.596 6.42a8.826 8.826 0 00-1.845-.37c-.352-.034-.705-.05-1.059-.05-6 0-7.5 4.5-7.5 6 0 1 .5 1.5 1.5 1.5h6.324a3.357 3.357 0 01-.324-1.5c0-1.515.566-3.063 1.635-4.356a7.937 7.937 0 011.269-1.224zM7.38 12A8.24 8.24 0 006 16.5H1.5c0-.39.246-1.545 1.14-2.586.817-.954 2.238-1.884 4.74-1.912V12zM2.25 5.25a4.5 4.5 0 119 0 4.5 4.5 0 01-9 0zm4.5-3a3 3 0 100 6 3 3 0 000-6z" fill="#819CA5"/></svg><svg fill="none" viewBox="0 0 24 24" id="icon-settings" xmlns="http://www.w3.org/2000/svg"><path d="M12 7.13a4.869 4.869 0 100 9.739 4.869 4.869 0 000-9.738zM8.63 12a3.369 3.369 0 116.739 0 3.369 3.369 0 01-6.738 0z" fill="currentColor"/><path d="M14.693 2.015c-.79-2.685-4.597-2.685-5.388 0l-.14.478a1.31 1.31 0 01-1.883.78l-.438-.24c-2.46-1.338-5.15 1.353-3.81 3.812l.238.438a1.31 1.31 0 01-.78 1.882l-.478.141c-2.685.79-2.685 4.598 0 5.388l.478.141a1.31 1.31 0 01.78 1.883l-.24.438c-1.338 2.46 1.352 5.15 3.812 3.81l.438-.239a1.311 1.311 0 011.882.78l.141.479c.79 2.685 4.598 2.685 5.388 0l.141-.479a1.31 1.31 0 011.883-.78l.438.24c2.46 1.34 5.15-1.353 3.81-3.811l-.239-.438a1.31 1.31 0 01.78-1.883l.479-.14c2.685-.791 2.685-4.598 0-5.389l-.479-.14a1.31 1.31 0 01-.78-1.883l.24-.438c1.34-2.46-1.353-5.15-3.811-3.81l-.438.238a1.31 1.31 0 01-1.883-.78l-.14-.478zm-3.95.424c.37-1.252 2.143-1.252 2.512 0l.14.479a2.81 2.81 0 004.04 1.672l.437-.24c1.146-.622 2.4.63 1.776 1.778l-.239.438a2.81 2.81 0 001.674 4.038l.477.14c1.253.37 1.253 2.143 0 2.512l-.478.14a2.81 2.81 0 00-1.673 4.04l.24.437c.623 1.146-.63 2.4-1.777 1.776l-.437-.239a2.809 2.809 0 00-4.04 1.674l-.14.477c-.37 1.253-2.142 1.253-2.511 0l-.141-.478a2.809 2.809 0 00-4.038-1.673l-.438.24c-1.146.623-2.4-.63-1.776-1.777l.238-.437a2.809 2.809 0 00-1.672-4.04l-.479-.142c-1.252-.369-1.252-2.142 0-2.51l.479-.142a2.81 2.81 0 001.672-4.036l-.24-.438c-.622-1.146.63-2.4 1.778-1.776l.438.238a2.81 2.81 0 004.038-1.672l.14-.479z" fill="currentColor"/></svg><svg fill="none" viewBox="0 0 25 38" id="icon-slider-right" xmlns="http://www.w3.org/2000/svg"><path d="M22.938 21.353L5.805 36.341c-2.018 1.768-5.181.33-5.181-2.354V4.012A3.125 3.125 0 015.809 1.66l17.125 14.988a3.126 3.126 0 010 4.706h.003z" fill="currentColor"/></svg><svg fill="none" viewBox="0 0 28 26" id="icon-star" xmlns="http://www.w3.org/2000/svg"><path d="M13.049.927c.3-.921 1.603-.921 1.902 0l2.417 7.438a1 1 0 00.95.69h7.821c.969 0 1.372 1.24.588 1.81L20.4 15.46a1 1 0 00-.363 1.118l2.416 7.438c.3.922-.755 1.688-1.538 1.118l-6.327-4.597a1 1 0 00-1.176 0l-6.327 4.597c-.783.57-1.838-.197-1.539-1.118l2.417-7.438a1 1 0 00-.363-1.118l-6.327-4.596c-.784-.57-.38-1.81.588-1.81h7.82a1 1 0 00.951-.69L13.05.927z" fill="#3FC2C3"/></svg><svg fill="none" viewBox="0 0 15 9" id="icon-success" xmlns="http://www.w3.org/2000/svg"><path d="M11.354 1.355a.501.501 0 10-.708-.708L4 7.294.854 4.147a.5.5 0 00-.708.708l3.5 3.5a.5.5 0 00.708 0l7-7zm-4.208 7l-.896-.897.707-.707.543.543L14.146.647a.5.5 0 01.708.708l-7 7a.5.5 0 01-.708 0z" fill="#000"/><path d="M11.354 1.355a.501.501 0 10-.708-.708L4 7.294.854 4.147a.5.5 0 00-.708.708l3.5 3.5a.5.5 0 00.708 0l7-7zm-4.208 7l-.896-.897.707-.707.543.543L14.146.647a.5.5 0 01.708.708l-7 7a.5.5 0 01-.708 0z" fill="#3FC2C3"/></svg><svg fill="none" viewBox="0 0 24 24" id="icon-ticket" xmlns="http://www.w3.org/2000/svg"><path d="M2.88.76a.75.75 0 01.651.21l.969.97.969-.97a.75.75 0 011.062 0l.969.97.969-.97a.75.75 0 011.062 0l.969.97.969-.97a.75.75 0 011.062 0l.969.97.969-.97a.75.75 0 011.062 0l.969.97.969-.97a.75.75 0 011.062 0l.969.97.969-.97a.75.75 0 011.201.194l.75 1.5A.75.75 0 0122.5 3v18a.75.75 0 01-.08.336l-.75 1.5a.75.75 0 01-1.2.195l-.97-.97-.969.97a.75.75 0 01-1.062 0l-.969-.97-.969.97a.75.75 0 01-1.062 0l-.969-.97-.969.97a.75.75 0 01-1.062 0l-.969-.97-.969.97a.75.75 0 01-1.062 0l-.969-.97-.969.97a.75.75 0 01-1.062 0l-.969-.97-.969.97a.75.75 0 01-1.202-.195l-.75-1.5A.75.75 0 011.5 21V3a.75.75 0 01.08-.336l.75-1.5A.75.75 0 012.88.76zm.325 2.006L3 3.177v17.646l.205.411.765-.765a.75.75 0 011.061 0l.969.97.969-.968a.75.75 0 011.062 0L9 21.44l.969-.97a.75.75 0 011.062 0l.969.97.969-.97a.749.749 0 011.062 0l.969.97.969-.97a.749.749 0 011.062 0l.969.97.969-.97a.749.749 0 011.062 0l.764.764.205-.41V3.176l-.206-.41-.765.764a.75.75 0 01-1.06 0L18 2.561l-.969.97a.75.75 0 01-1.062 0L15 2.561l-.969.97a.75.75 0 01-1.062 0L12 2.561l-.969.97a.75.75 0 01-1.062 0L9 2.561l-.969.97a.75.75 0 01-1.062 0L6 2.561l-.969.97a.75.75 0 01-1.062 0l-.764-.765z" fill="#000"/><path d="M2.88.76a.75.75 0 01.651.21l.969.97.969-.97a.75.75 0 011.062 0l.969.97.969-.97a.75.75 0 011.062 0l.969.97.969-.97a.75.75 0 011.062 0l.969.97.969-.97a.75.75 0 011.062 0l.969.97.969-.97a.75.75 0 011.062 0l.969.97.969-.97a.75.75 0 011.201.194l.75 1.5A.75.75 0 0122.5 3v18a.75.75 0 01-.08.336l-.75 1.5a.75.75 0 01-1.2.195l-.97-.97-.969.97a.75.75 0 01-1.062 0l-.969-.97-.969.97a.75.75 0 01-1.062 0l-.969-.97-.969.97a.75.75 0 01-1.062 0l-.969-.97-.969.97a.75.75 0 01-1.062 0l-.969-.97-.969.97a.75.75 0 01-1.062 0l-.969-.97-.969.97a.75.75 0 01-1.202-.195l-.75-1.5A.75.75 0 011.5 21V3a.75.75 0 01.08-.336l.75-1.5A.75.75 0 012.88.76zm.325 2.006L3 3.177v17.646l.205.411.765-.765a.75.75 0 011.061 0l.969.97.969-.968a.75.75 0 011.062 0L9 21.44l.969-.97a.75.75 0 011.062 0l.969.97.969-.97a.749.749 0 011.062 0l.969.97.969-.97a.749.749 0 011.062 0l.969.97.969-.97a.749.749 0 011.062 0l.764.764.205-.41V3.176l-.206-.41-.765.764a.75.75 0 01-1.06 0L18 2.561l-.969.97a.75.75 0 01-1.062 0L15 2.561l-.969.97a.75.75 0 01-1.062 0L12 2.561l-.969.97a.75.75 0 01-1.062 0L9 2.561l-.969.97a.75.75 0 01-1.062 0L6 2.561l-.969.97a.75.75 0 01-1.062 0l-.764-.765z" fill="currentColor"/><path d="M4.5 6.75A.75.75 0 015.25 6h9a.75.75 0 110 1.5h-9a.75.75 0 01-.75-.75zm0 3A.75.75 0 015.25 9h9a.75.75 0 110 1.5h-9a.75.75 0 01-.75-.75zm0 3a.75.75 0 01.75-.75h9a.75.75 0 110 1.5h-9a.75.75 0 01-.75-.75zm0 3a.75.75 0 01.75-.75h9a.75.75 0 110 1.5h-9a.75.75 0 01-.75-.75zm12-9a.75.75 0 01.75-.75h1.5a.75.75 0 110 1.5h-1.5a.75.75 0 01-.75-.75zm0 3a.75.75 0 01.75-.75h1.5a.75.75 0 110 1.5h-1.5a.75.75 0 01-.75-.75zm0 3a.75.75 0 01.75-.75h1.5a.75.75 0 110 1.5h-1.5a.75.75 0 01-.75-.75zm0 3a.75.75 0 01.75-.75h1.5a.75.75 0 110 1.5h-1.5a.75.75 0 01-.75-.75z" fill="#000"/><path d="M4.5 6.75A.75.75 0 015.25 6h9a.75.75 0 110 1.5h-9a.75.75 0 01-.75-.75zm0 3A.75.75 0 015.25 9h9a.75.75 0 110 1.5h-9a.75.75 0 01-.75-.75zm0 3a.75.75 0 01.75-.75h9a.75.75 0 110 1.5h-9a.75.75 0 01-.75-.75zm0 3a.75.75 0 01.75-.75h9a.75.75 0 110 1.5h-9a.75.75 0 01-.75-.75zm12-9a.75.75 0 01.75-.75h1.5a.75.75 0 110 1.5h-1.5a.75.75 0 01-.75-.75zm0 3a.75.75 0 01.75-.75h1.5a.75.75 0 110 1.5h-1.5a.75.75 0 01-.75-.75zm0 3a.75.75 0 01.75-.75h1.5a.75.75 0 110 1.5h-1.5a.75.75 0 01-.75-.75zm0 3a.75.75 0 01.75-.75h1.5a.75.75 0 110 1.5h-1.5a.75.75 0 01-.75-.75z" fill="currentColor"/></svg><svg fill="none" viewBox="0 0 18 22" id="icon-time" xmlns="http://www.w3.org/2000/svg"><path d="M0 1.25A.75.75 0 01.75.5h16.5a.75.75 0 110 1.5h-1.5v1.5a6.75 6.75 0 01-3.835 6.09c-.435.209-.665.566-.665.885v1.05c0 .32.231.676.665.885a6.75 6.75 0 013.835 6.09V20h1.5a.75.75 0 110 1.5H.75a.75.75 0 110-1.5h1.5v-1.5a6.75 6.75 0 013.835-6.09c.436-.209.665-.566.665-.885v-1.05c0-.32-.231-.676-.665-.885A6.75 6.75 0 012.25 3.5V2H.75A.75.75 0 010 1.25zM3.75 2v1.5a5.25 5.25 0 002.984 4.737c.799.384 1.516 1.187 1.516 2.236v1.053c0 1.05-.717 1.853-1.516 2.237A5.25 5.25 0 003.75 18.5V20h10.5v-1.5a5.25 5.25 0 00-2.983-4.737c-.8-.384-1.517-1.185-1.517-2.236v-1.053c0-1.05.717-1.853 1.517-2.237A5.25 5.25 0 0014.25 3.5V2H3.75z" fill="currentColor"/></svg><svg fill="none" viewBox="0 0 24 16" id="icon-triangle" xmlns="http://www.w3.org/2000/svg"><path d="M13.24 15.316a1.014 1.014 0 01-1.633.107L.918 2.533a1 1 0 01.77-1.638h21.15c.917 0 1.363 1.14.7 1.772-1.554 1.476-3.723 3.616-5.191 5.38-1.817 2.184-3.99 5.51-5.106 7.268z" fill="#3FC2C3"/><path d="M13.24 15.316a1.014 1.014 0 01-1.633.107L.918 2.533a1 1 0 01.77-1.638h21.15c.917 0 1.363 1.14.7 1.772-1.554 1.476-3.723 3.616-5.191 5.38-1.817 2.184-3.99 5.51-5.106 7.268z" fill="url(#bhpaint0_linear_62_410)"/><defs><linearGradient id="bhpaint0_linear_62_410" x1="13.687" y1="16.5" x2="13.687" y2=".895" gradientUnits="userSpaceOnUse"><stop offset="1" stop-color="#BCEAEA"/></linearGradient></defs></svg><svg fill="none" viewBox="0 0 35 35" id="icon-twitter" xmlns="http://www.w3.org/2000/svg"><path d="M33.04 7.776c-1.166.512-2.409.85-3.704 1.015a6.393 6.393 0 002.828-3.553 12.85 12.85 0 01-4.077 1.556 6.427 6.427 0 00-11.121 4.396c0 .51.043 1 .15 1.467C11.77 12.396 7.04 9.834 3.863 5.932a6.473 6.473 0 00-.88 3.25c0 2.226 1.146 4.2 2.855 5.342a6.349 6.349 0 01-2.904-.791v.07c0 3.124 2.228 5.72 5.15 6.317a6.416 6.416 0 01-1.685.212c-.412 0-.827-.024-1.217-.11.833 2.546 3.196 4.418 6.007 4.479a12.918 12.918 0 01-7.971 2.742c-.527 0-1.033-.024-1.539-.088a18.099 18.099 0 009.863 2.885c11.83 0 18.299-9.8 18.299-18.295 0-.284-.01-.559-.024-.83a12.826 12.826 0 003.222-3.339z" fill="currentColor"/></svg><svg fill="none" viewBox="0 0 20 20" id="icon-user" xmlns="http://www.w3.org/2000/svg"><path d="M1.667 20S0 20 0 18.333c0-1.666 1.667-6.666 10-6.666s10 5 10 6.666C20 20 18.333 20 18.333 20H1.667zM10 10a5 5 0 100-10 5 5 0 000 10z" fill="currentColor"/></svg><svg fill="none" viewBox="0 0 16 10" id="icon-video" xmlns="http://www.w3.org/2000/svg"><path fill-rule="evenodd" clip-rule="evenodd" d="M0 2a2 2 0 012-2h7.5a2 2 0 011.983 1.738l3.11-1.382A1 1 0 0116 1.269v7.462a1 1 0 01-1.406.913l-3.111-1.382A2 2 0 019.5 10H2a2 2 0 01-2-2V2z" fill="currentColor"/></svg></svg>